<svg id="Capa_1" data-name="Capa 1" xmlns="http://www.w3.org/2000/svg" viewBox="0 0 2531.14 460.44"><defs><style>.cls-1{font-size:353.37px;font-family:Montserrat-Bold, Montserrat;font-weight:700;}.cls-1,.cls-8{fill:#18a300;}.cls-2{letter-spacing:0em;}.cls-3{letter-spacing:-0.01em;}.cls-4,.cls-5{fill:#4ad32d;}.cls-5{letter-spacing:0.02em;}.cls-6{fill:#f39200;}.cls-7{fill:#f9ff00;}</style></defs><text class="cls-1" transform="translate(498.34 300.36)"><tspan class="cls-2">A</tspan><tspan x="268.91" y="0">g</tspan><tspan class="cls-3" x="515.91" y="0">r</tspan><tspan x="662.92" y="0">o</tspan><tspan class="cls-4" x="894.37" y="0">Sma</tspan><tspan class="cls-5" x="1708.17" y="0">r</tspan><tspan class="cls-4" x="1865.77" y="0">t</tspan></text><path class="cls-6" d="M261.94,170.35c-12.55,25.8-25.24,42.13-43.93,65.9-40.11,51-103,131-148.08,116.89-11.22-3.51-17.42-12.27-29.84-29.79C1.72,269.18,0,211.78,0,203.31,0,193.66.88,146,29.53,99.54c.81-1.32,1.6-2.56,2.37-3.75,37.82-58.22,94.66-78.17,107.88-82.45a199.24,199.24,0,0,1,59.9-9.7,185.83,185.83,0,0,1,48,5.81c15.83,4.15,23.75,6.23,29.67,11C306.2,43.64,286,120.9,261.94,170.35Z"/><polygon class="cls-7" points="81.57 326.1 45.53 79.26 110.94 319.99 81.57 326.1 81.57 326.1"/><polygon class="cls-7" points="130.75 279.04 63.33 58.65 158.81 268.41 130.75 279.04 130.75 279.04"/><polygon class="cls-7" points="165.27 232.94 83.96 40.15 192.01 219.33 165.27 232.94 165.27 232.94"/><polygon class="cls-7" points="207.56 201.83 104.5 29.55 232.09 184.55 207.56 201.83 207.56 201.83"/><polygon class="cls-7" points="245.63 168.82 123.47 20.49 267.23 148 245.63 168.82 245.63 168.82"/><polygon class="cls-7" points="265.51 115.07 139.78 13.34 282.13 90.1 265.51 115.07 265.51 115.07"/><path class="cls-8" d="M96.26,323.05c30.89-62.68,67.42-100.48,96.6-123.92,34.39-27.62,58.39-35.16,68.64-65,11.51-33.5,1.76-83.73-36.61-109.83-37.32-25.38-79.47-12.77-85.11-11C161.3,6.63,202.83-2.83,250.23,10c82,22.16,149.46,102.32,150.59,194.82C400.93,214,400.47,307,323.67,365c-64.89,49.06-157,52.62-232.42,7.89C119.75,376.1,201,381.31,266.1,330a205,205,0,0,0,34.55-35c12.77-16.43,60.22-80.83,43.64-154.52-12.26-54.43-48.89-86-61.52-96,8.66,8.13,51.26,49.81,52.57,115.37,1,51.49-24,88-31,97.95a204.75,204.75,0,0,1-38,38.49c-18.21,14-82.46,46.84-175.13,76.65l-10.89-7.62a195.65,195.65,0,0,1-27.35-25C-1.83,279.7.06,199.13.06,199.13,1.29,149.58,21,113,31.9,95.79c-7.25,14-26.81,56.33-17.06,110.12C28.27,279.93,86.58,317.1,96.26,323.05Z"/></svg>