<svg id="Capa_1" data-name="Capa 1" xmlns="http://www.w3.org/2000/svg" viewBox="0 0 89.89 89.85"><defs><style>.cls-1{fill:#f39200;}.cls-2{fill:#f9ff00;}.cls-3{fill:#18a300;}</style></defs><path class="cls-1" d="M58.74,37.39c-2.81,5.79-5.66,9.45-9.85,14.78-9,11.44-23.1,29.37-33.21,26.21-2.51-.78-3.9-2.75-6.69-6.68A49.72,49.72,0,0,1,0,44.78,46.34,46.34,0,0,1,6.62,21.51c.18-.3.36-.58.53-.84A46.59,46.59,0,0,1,31.35,2.18,44.82,44.82,0,0,1,44.78,0,42.1,42.1,0,0,1,55.55,1.3c3.55.94,5.32,1.4,6.65,2.47C68.67,9,64.14,26.3,58.74,37.39Z"/><polygon class="cls-2" points="17.67 72.45 10.21 16.96 25.5 70.82 17.67 72.45 17.67 72.45"/><polygon class="cls-2" points="28.73 61.99 14.2 12.34 36.21 59.16 28.73 61.99 28.73 61.99"/><polygon class="cls-2" points="36.5 51.71 18.83 8.19 43.63 48.09 36.5 51.71 36.5 51.71"/><polygon class="cls-2" points="46.03 44.81 23.44 5.81 52.57 40.21 46.03 44.81 46.03 44.81"/><polygon class="cls-2" points="54.63 37.49 27.69 3.78 60.39 31.93 54.63 37.49 54.63 37.49"/><polygon class="cls-2" points="59.19 25.52 31.35 2.18 63.63 18.86 59.19 25.52 59.19 25.52"/><path class="cls-3" d="M21.59,71.63c6.93-14,15.12-22.53,21.66-27.79C51,37.65,56.35,36,58.65,29.27c2.58-7.51.39-18.78-8.21-24.63C42.06-1,32.61,1.78,31.35,2.18a44.51,44.51,0,0,1,24.77-.76c18.39,5,33.52,23,33.77,43.7,0,2.05-.08,22.9-17.3,35.93-14.55,11-35.22,11.8-52.13,1.77,6.4.71,24.62,1.88,39.22-9.62a45.91,45.91,0,0,0,7.75-7.86c2.86-3.69,13.5-18.13,9.78-34.65A38.8,38.8,0,0,0,63.42,9.15C65.36,11,74.91,20.32,75.21,35a37.18,37.18,0,0,1-7,22,45.92,45.92,0,0,1-8.51,8.63c-4.08,3.15-18.49,10.5-39.28,17.19L18,81.11a44.07,44.07,0,0,1-6.13-5.6C-.41,61.91,0,43.84,0,43.84A45.74,45.74,0,0,1,7.15,20.67,39.17,39.17,0,0,0,3.33,45.36C6.34,62,19.42,70.3,21.59,71.63Z"/></svg>